# xmcd
#
# Track frame offsets: 
#        150
#        13907
#        39102
#        58072
#        82438
#        99336
#        112001
#        128276
#        143863
#        163814
#
# Disc length: 2756 seconds
#
# Revision: 0
# Processed by: cddbd v1.5.2PL0 Copyright (c) Steve Scherf et al.
# Submitted via: ExactAudioCopyFreeDBPlugin 1.0
#
DISCID=830ac20a
DTITLE=Alis P - Ciparu pasaule
DYEAR=2016
DGENRE=Blues Rock
TTITLE0=Viens pret vienu
TTITLE1=Ceļš uz kautkurieni
TTITLE2=Pirmdienas vakars
TTITLE3=Kad tu mosties
TTITLE4=Ciparu pasaule
TTITLE5=Lielie vārti
TTITLE6=Meklējos
TTITLE7=Otrā pusē pagalmam
TTITLE8=Visiem tiem
TTITLE9=Iet cilvēks
EXTD=
EXTT0=
EXTT1=
EXTT2=
EXTT3=
EXTT4=
EXTT5=
EXTT6=
EXTT7=
EXTT8=
EXTT9=
PLAYORDER=
